<?xml version="1.0" standalone="no"?>
<!DOCTYPE svg PUBLIC "-//W3C//DTD SVG 20010904//EN"
 "http://www.w3.org/TR/2001/REC-SVG-20010904/DTD/svg10.dtd">
<svg version="1.0" xmlns="http://www.w3.org/2000/svg"
 width="300.000000pt" height="349.000000pt" viewBox="0 0 300.000000 349.000000"
 preserveAspectRatio="xMidYMid meet">
<metadata>
Created by potrace 1.10, written by Peter Selinger 2001-2011
</metadata>
<g transform="translate(0.000000,349.000000) scale(0.100000,-0.100000)"
fill="#000000" stroke="none">
<path d="M2531 3320 l-13 -60 -49 -6 c-27 -4 -49 -10 -49 -14 0 -9 36 -20 68
-20 21 0 22 -4 22 -70 0 -38 4 -70 9 -70 5 0 15 26 21 58 17 84 15 82 65 82
33 0 45 4 45 15 0 11 -12 15 -45 15 l-45 0 0 65 c0 36 -4 65 -8 65 -4 0 -14
-27 -21 -60z m39 -83 c10 -4 7 -6 -7 -6 -16 -1 -23 -8 -24 -23 l-2 -23 -4 23
c-3 14 -12 22 -26 23 l-22 0 23 11 c12 6 22 16 22 21 0 6 6 4 13 -5 6 -9 19
-18 27 -21z"/>
<path d="M1498 3323 c-16 -3 -28 -9 -28 -14 0 -6 -4 -8 -8 -5 -5 3 -15 -6 -22
-19 -7 -13 -16 -22 -21 -20 -4 3 -5 -4 -2 -15 6 -21 -20 -29 -32 -10 -3 6 -22
10 -41 10 -19 0 -33 -4 -30 -9 3 -5 -3 -11 -14 -14 -11 -3 -28 -19 -37 -36
-15 -26 -22 -31 -43 -26 -14 4 -26 11 -28 16 -2 5 -13 9 -23 9 -11 0 -17 -4
-14 -10 5 -9 -8 -12 -31 -9 -4 0 -10 -4 -13 -9 -3 -6 -40 -27 -81 -46 -59 -29
-86 -36 -133 -36 -56 0 -95 12 -108 33 -4 5 -15 7 -25 3 -44 -17 127 -126 196
-126 19 0 62 7 95 15 73 17 75 18 75 5 0 -5 -7 -10 -15 -10 -23 0 -113 -47
-180 -95 -214 -152 -376 -416 -425 -691 -18 -102 -6 -384 18 -431 5 -10 12
-31 16 -46 8 -33 -10 -28 -24 7 -8 20 -9 19 -9 -5 -1 -20 5 -28 22 -33 16 -4
28 -20 42 -58 23 -65 72 -152 132 -236 40 -57 47 -62 60 -49 14 13 10 22 -30
79 -48 68 -127 208 -127 225 0 7 18 9 46 5 36 -4 46 -2 42 9 -3 9 -19 12 -50
10 -43 -2 -46 -1 -57 30 -6 18 -10 33 -9 34 2 2 21 12 44 23 42 22 71 49 61
58 -10 11 -44 -6 -73 -36 -16 -16 -32 -30 -35 -30 -11 0 -30 114 -36 220 -22
401 189 773 548 965 33 17 56 34 52 38 -3 4 1 7 11 7 10 0 41 -24 69 -53 56
-58 85 -77 116 -77 11 0 23 -4 26 -10 3 -6 -4 -9 -17 -8 -58 5 -195 -147 -268
-297 -64 -129 -81 -195 -87 -330 -9 -186 33 -342 130 -493 41 -63 131 -173
147 -180 4 -1 10 15 13 36 4 21 32 99 63 173 55 129 94 234 94 249 0 5 -10 10
-23 14 -12 3 -38 21 -57 41 -34 35 -35 39 -36 114 -1 43 -5 85 -10 92 -5 8
-10 29 -11 47 -1 25 1 32 12 28 11 -4 12 0 6 17 -29 77 -18 257 16 257 22 0
102 -61 152 -115 40 -44 44 -46 73 -36 39 14 100 14 130 1 21 -9 31 -3 95 59
80 76 129 103 143 81 23 -38 22 -207 -1 -252 -7 -14 -6 -16 5 -12 12 5 14 -2
13 -30 -2 -20 -7 -40 -13 -46 -7 -7 -8 -26 -3 -54 13 -69 -8 -130 -58 -171
-10 -8 -10 -20 3 -60 8 -27 19 -111 24 -185 5 -74 14 -153 20 -175 7 -21 10
-60 8 -86 l-5 -46 38 7 c62 12 112 43 132 83 25 49 17 80 -39 155 -25 34 -49
74 -54 91 -24 84 73 193 120 135 11 -13 10 -23 -8 -59 -25 -52 -20 -81 28
-149 45 -67 70 -126 70 -170 0 -51 -34 -120 -74 -150 -42 -33 -127 -56 -201
-56 -55 0 -61 -2 -61 -21 0 -16 5 -19 23 -14 13 3 44 8 71 11 68 8 136 31 226
76 105 53 167 100 249 188 40 43 71 69 76 64 12 -12 -37 -116 -94 -203 -140
-213 -372 -376 -615 -431 -52 -12 -112 -28 -132 -35 -58 -21 -45 -2 30 44 51
31 79 41 110 41 23 0 42 2 42 5 0 12 -56 57 -89 71 -18 9 -51 14 -72 13 -32
-3 -42 2 -71 33 -32 35 -35 36 -90 33 l-58 -4 0 29 c0 19 -11 42 -29 62 -27
30 -34 33 -94 34 -52 1 -69 6 -86 23 -49 49 -137 56 -195 16 -35 -23 -39 -24
-66 -10 -91 47 -250 -22 -269 -117 -6 -30 -10 -33 -44 -32 -20 1 -34 -2 -32
-6 3 -4 -2 -13 -10 -20 -8 -7 -15 -21 -15 -31 0 -12 -7 -19 -19 -19 -11 0 -47
-22 -81 -50 -84 -67 -140 -85 -221 -70 -34 6 -103 11 -153 11 -115 -1 -126 -2
-120 -13 3 -4 0 -8 -6 -8 -7 0 -6 -5 2 -14 7 -7 19 -11 26 -9 17 7 162 -39
156 -49 -3 -5 -2 -7 3 -6 14 5 162 -35 158 -43 -6 -8 144 -4 173 5 15 5 29 -2
54 -28 37 -38 74 -56 114 -56 l26 0 -36 -42 c-50 -58 -73 -156 -47 -197 15
-23 41 5 41 45 0 95 130 258 172 216 11 -11 5 -22 -134 -261 -43 -74 -88 -165
-100 -202 -21 -65 -21 -68 -4 -94 17 -26 18 -26 38 -8 23 20 215 262 243 306
10 15 21 24 25 20 5 -4 4 -46 -1 -93 -20 -197 -22 -303 -6 -342 48 -113 155
-84 337 92 45 45 79 73 75 63 -17 -42 -17 -99 0 -116 48 -48 121 -3 319 195
l149 150 24 -24 24 -24 -35 -50 c-103 -143 -138 -243 -101 -284 40 -44 118
-11 219 94 38 39 66 62 61 51 -18 -43 -18 -86 0 -105 46 -50 117 -11 277 152
71 72 128 134 128 139 0 31 -50 -6 -155 -115 -114 -117 -198 -186 -211 -173
-12 12 6 54 76 171 38 65 70 126 70 136 0 15 -29 50 -42 50 -3 0 -29 -36 -56
-79 -53 -83 -210 -254 -261 -284 -37 -21 -71 -22 -71 -1 0 8 32 64 70 124 39
60 74 119 79 132 13 35 -3 62 -52 88 -44 23 -45 25 -33 50 34 66 26 120 -17
120 -56 -1 -83 -63 -48 -110 l21 -29 -133 -141 c-117 -124 -237 -230 -259
-230 -22 0 0 54 67 167 41 70 75 134 75 143 0 16 -29 50 -43 50 -3 0 -26 -33
-52 -74 -66 -106 -317 -334 -388 -351 -60 -16 -67 17 -42 220 18 148 19 247 3
263 -7 7 -20 12 -30 12 -10 0 -18 2 -18 5 0 3 32 45 71 94 70 88 71 89 109 84
25 -4 46 0 63 11 16 11 27 13 31 7 4 -5 -3 -15 -14 -21 -28 -15 -25 -44 5 -58
44 -20 65 -14 113 33 25 25 53 45 62 45 26 0 86 71 82 98 -4 25 6 27 42 11 14
-7 33 -8 43 -4 10 4 34 7 53 6 19 -1 73 5 120 13 334 59 608 260 765 561 50
95 58 147 26 165 -29 15 -49 12 -69 -9 -119 -128 -226 -221 -238 -208 -3 3 -1
14 5 25 29 54 5 148 -63 245 l-40 57 14 48 c27 93 7 142 -58 142 -120 0 -174
-161 -92 -278 18 -26 42 -59 53 -74 27 -37 16 -72 -33 -104 -22 -15 -42 -25
-43 -23 -7 9 -27 162 -37 279 -6 69 -16 142 -21 164 -9 33 -8 41 9 60 47 52
48 53 57 364 4 128 2 160 -13 200 -15 41 -22 47 -49 50 -37 4 -69 -15 -152
-87 l-61 -54 -86 0 c-84 0 -86 1 -122 35 -134 128 -209 141 -228 40 -8 -40 -7
-267 1 -400 6 -96 19 -127 76 -175 l41 -35 -47 -114 c-26 -62 -57 -138 -68
-168 -11 -30 -22 -57 -24 -59 -13 -18 -130 158 -167 252 -70 178 -73 389 -7
564 47 126 145 264 241 340 30 24 60 48 67 53 7 6 15 10 19 10 4 0 22 11 40
25 20 16 35 21 39 15 4 -6 24 -22 46 -35 42 -27 88 -32 107 -13 7 7 12 9 12 4
0 -4 12 7 26 24 19 22 32 29 43 24 21 -10 131 -12 126 -3 -3 4 15 10 40 13 25
4 45 11 45 15 0 11 58 25 88 22 13 -1 21 2 18 7 -6 10 48 22 101 22 17 0 35
-4 38 -10 8 -13 35 -13 35 -1 0 9 -59 74 -70 77 -41 13 -50 18 -50 25 0 5 -11
7 -25 3 -15 -4 -25 -2 -25 5 0 7 -8 7 -26 0 -28 -10 -38 -6 -40 14 0 7 -2 19
-3 27 0 8 -15 30 -32 48 -26 27 -37 32 -78 32 -26 0 -53 -6 -59 -12 -10 -10
-15 -10 -22 2 -5 8 -6 18 -4 22 3 4 -2 8 -10 8 -9 0 -16 4 -16 8 0 4 -15 6
-34 4 -28 -3 -37 0 -47 20 -11 20 -27 37 -64 65 -11 9 -66 12 -107 6z m77 -33
c-3 -5 0 -7 8 -4 26 9 87 -66 80 -97 -1 -3 4 -6 12 -6 8 0 12 4 9 9 -3 4 10 8
29 8 23 0 37 -6 41 -16 10 -25 7 -36 -6 -28 -9 5 -9 2 1 -9 7 -9 19 -17 25
-16 6 0 5 3 -3 6 -9 4 3 13 33 24 43 17 50 18 83 4 59 -25 79 -69 50 -109 -27
-37 -107 -12 -91 27 3 9 9 15 13 12 4 -2 8 2 8 10 0 8 -5 15 -12 15 -17 0 -35
-22 -35 -42 0 -10 -4 -18 -10 -18 -5 0 -10 6 -10 14 0 24 -91 34 -300 32 -177
-1 -199 -3 -225 -21 -23 -15 -48 -20 -110 -20 -44 -1 -109 -9 -145 -19 -67
-18 -143 -17 -163 3 -8 8 7 11 55 11 58 0 77 5 156 45 100 50 103 51 161 30
23 -8 39 -10 36 -5 -3 6 2 23 12 40 32 55 121 61 146 10 19 -38 60 -48 102
-25 29 15 35 23 33 48 -2 21 -10 32 -27 38 -32 13 -36 6 -16 -25 19 -28 15
-41 -16 -49 -28 -7 -71 34 -62 60 9 26 44 63 54 57 5 -3 9 0 9 5 0 6 18 11 41
11 24 0 38 -4 34 -10z m-265 -219 c0 -5 -7 -11 -15 -15 -35 -13 -11 -22 38
-13 80 15 84 16 67 27 -9 6 -10 10 -3 10 22 0 72 -50 78 -80 6 -26 -16 -90
-31 -90 -3 0 -2 5 1 10 9 15 -4 12 -45 -11 -50 -28 -77 -21 -145 41 -83 75
-99 83 -150 78 -54 -7 -60 7 -7 16 44 7 103 7 84 -1 -10 -4 -8 -9 6 -19 11 -8
28 -11 36 -8 11 4 26 -3 41 -20 25 -27 62 -34 96 -16 20 11 25 35 9 45 -6 4
-7 -1 -3 -12 6 -16 5 -17 -12 -3 -10 8 -16 10 -12 4 11 -19 -24 -26 -49 -9
-26 17 -31 44 -12 63 14 14 28 16 28 3z m458 -17 c36 -10 27 -34 -13 -34 -23
0 -38 -6 -42 -16 -4 -12 -8 -11 -17 8 -8 16 -22 24 -44 26 -62 6 -86 -46 -32
-68 26 -11 33 -10 50 5 20 18 20 17 20 -13 0 -40 -50 -92 -88 -91 -33 2 -92
27 -92 39 0 4 23 16 50 25 28 9 50 21 50 26 0 15 -44 21 -74 10 -37 -15 -36
-15 -36 21 0 19 -9 41 -22 56 l-23 25 145 -6 c80 -3 155 -9 168 -13z m127 -44
c12 0 34 9 48 20 41 32 155 23 197 -16 12 -12 6 -14 -40 -15 -83 -2 -95 -4
-145 -28 -25 -12 -51 -18 -57 -15 -7 4 -8 3 -4 -4 6 -11 -27 -18 -56 -13 -5 0
-8 -2 -8 -6 0 -10 -47 -14 -88 -7 -27 4 -33 9 -30 27 2 18 11 23 43 25 49 4
78 27 69 55 -6 20 -5 20 21 -1 15 -12 38 -22 50 -22z m-215 -1 c13 -9 13 -10
0 -8 -30 3 -39 -1 -34 -16 7 -17 -11 -21 -21 -5 -19 30 22 52 55 29z m-455
-1612 c31 -15 55 -39 49 -48 -3 -5 24 -7 63 -3 64 6 69 5 92 -19 19 -21 22
-34 20 -75 -4 -43 -2 -48 14 -44 9 2 17 8 17 13 0 5 24 9 53 9 40 0 59 -5 75
-20 12 -12 22 -25 22 -30 0 -9 -32 -30 -44 -30 -12 0 -6 38 7 44 6 3 3 5 -8 3
-28 -3 -28 -52 0 -52 11 0 22 -3 25 -7 3 -4 25 2 48 13 40 20 43 20 92 4 27
-9 50 -18 50 -20 0 -2 -19 -13 -43 -23 -24 -11 -65 -36 -91 -56 -26 -20 -56
-36 -67 -36 -11 0 -17 -4 -14 -10 3 -5 0 -10 -9 -10 -8 0 -16 4 -18 8 -1 5
-20 12 -40 15 -33 5 -38 3 -38 -14 0 -29 -37 -97 -59 -109 -28 -15 -31 -13
-22 12 4 13 5 36 0 52 -8 28 -8 28 25 23 28 -4 35 -2 39 14 5 20 2 21 -75 34
-25 4 -37 2 -40 -7 -3 -7 -5 3 -6 22 0 22 6 41 19 53 48 45 2 127 -72 127 -29
0 -39 5 -44 20 -3 11 -17 23 -31 26 -13 3 -21 11 -18 16 4 6 -1 8 -12 5 -11
-3 -36 -9 -56 -13 -35 -6 -38 -4 -38 18 0 13 -7 34 -16 47 -19 27 -12 37 42
56 39 14 71 11 109 -8z m-208 -25 c47 -30 66 -99 41 -145 -34 -59 -37 -60 -87
-20 -25 20 -51 41 -58 45 -8 7 -17 -1 -28 -22 -15 -30 -15 -33 2 -53 27 -33
35 -37 71 -37 43 0 60 -36 36 -81 -19 -38 -55 -52 -100 -40 -36 10 -48 3 -38
-23 3 -9 3 -32 0 -51 -9 -46 -68 -79 -124 -69 -46 8 -108 47 -117 73 -5 16
-12 18 -48 13 -54 -8 -123 -8 -167 -1 -50 9 -163 41 -175 50 -5 4 -30 13 -55
20 -70 20 -17 22 130 5 69 -8 127 -11 130 -7 3 4 16 11 30 14 14 3 52 29 85
57 66 56 110 66 133 30 13 -21 4 -53 -14 -51 -13 1 -11 -22 1 -26 6 -2 21 6
32 17 27 25 22 63 -13 93 -29 25 -25 49 10 65 18 8 29 7 46 -5 29 -20 47 -4
30 27 -22 41 25 112 86 129 47 14 136 10 161 -7z m203 -132 c11 -11 20 -24 20
-30 0 -5 20 -10 44 -10 50 0 69 -16 64 -57 -3 -30 -8 -31 -75 -17 -41 8 -83
-20 -82 -56 0 -24 0 -24 9 -3 6 14 21 24 43 28 41 8 73 -6 82 -36 7 -22 -5
-42 -12 -21 -4 10 -9 8 -19 -5 -12 -17 -13 -17 -8 3 5 18 0 22 -27 28 -34 7
-56 -5 -45 -23 4 -6 16 -11 27 -11 30 0 22 -13 -22 -37 -32 -17 -46 -20 -60
-12 -11 5 -17 14 -14 20 4 5 -1 9 -9 9 -10 0 -16 -9 -16 -25 0 -41 -25 -78
-68 -103 -49 -27 -72 -28 -72 -3 0 31 -26 44 -71 37 -38 -6 -40 -5 -34 15 4
12 8 29 10 38 1 12 13 16 49 15 25 0 44 1 42 3 -2 2 9 17 25 33 31 30 37 66
18 102 -10 18 -7 25 19 47 16 14 35 36 42 49 22 44 105 57 140 22z m-269 -62
c34 -15 39 -28 7 -21 -35 9 -58 34 -57 62 l1 26 9 -27 c6 -15 24 -33 40 -40z
m359 -182 c0 -7 -44 -33 -70 -41 -23 -7 -24 -6 -10 10 19 23 80 47 80 31z m48
-21 c5 -24 -16 -61 -45 -81 -20 -13 -30 -13 -60 -3 -27 8 -37 8 -42 0 -8 -13
-81 -28 -81 -17 0 3 15 20 33 36 21 20 43 30 65 30 39 0 87 23 96 45 8 21 30
14 34 -10z m-350 -187 c-29 -35 -106 -138 -171 -230 -109 -155 -137 -190 -137
-173 0 9 60 114 113 197 23 36 69 109 102 162 49 78 64 95 85 96 14 0 32 4 40
10 30 19 20 0 -32 -62z m817 -68 c7 -12 -15 -80 -27 -80 -14 0 -20 48 -8 69
12 23 25 27 35 11z"/>
<path d="M1142 1373 c6 -7 16 -13 23 -13 7 0 17 6 23 13 9 10 3 13 -23 13 -26
0 -32 -3 -23 -13z"/>
<path d="M880 1362 c0 -5 9 -17 20 -27 11 -10 20 -13 20 -7 0 7 5 11 12 10 6
-2 14 6 16 16 4 18 3 19 -13 3 -15 -15 -18 -15 -31 -2 -17 17 -24 19 -24 7z"/>
<path d="M797 1326 c-3 -7 13 -33 36 -56 40 -43 41 -43 51 -20 9 20 5 27 -29
56 -45 38 -51 40 -58 20z"/>
<path d="M1035 1151 c-11 -19 8 -39 70 -69 75 -38 75 -38 75 -12 0 14 -19 29
-69 55 -39 19 -72 31 -76 26z"/>
<path d="M2324 3295 c-9 -48 -45 -83 -94 -91 -54 -9 -58 -20 -10 -28 63 -10
87 -46 81 -123 -3 -27 17 -40 26 -17 10 28 -15 107 -43 131 l-25 23 25 11 c14
7 32 26 40 43 l16 31 0 -28 c0 -16 10 -36 24 -48 l25 -21 -30 -25 c-16 -14
-29 -34 -28 -46 0 -21 1 -21 12 -3 32 50 45 59 82 60 46 2 62 26 17 26 -17 0
-38 3 -47 6 -23 9 -45 57 -45 99 0 45 -17 46 -26 0z"/>
<path d="M2424 3093 c-7 -31 -14 -38 -33 -38 -14 0 -26 -6 -29 -13 -2 -8 7
-12 27 -12 30 0 31 -1 31 -47 0 -53 10 -51 19 4 6 34 10 38 39 41 40 4 42 22
2 22 -28 0 -30 2 -30 40 0 50 -14 52 -26 3z"/>
<path d="M710 2885 c-1 -11 -1 -28 0 -38 2 -26 -18 -47 -46 -47 -13 0 -24 -4
-24 -10 0 -5 13 -10 29 -10 30 0 40 -13 42 -53 1 -14 5 -7 11 17 7 25 18 40
31 44 20 5 20 6 1 12 -13 5 -23 23 -31 56 -6 27 -12 40 -13 29z"/>
<path d="M559 2818 c-1 -18 -1 -44 0 -58 1 -14 -3 -32 -8 -40 -9 -13 -21 -16
-79 -19 -25 -2 -1 -21 26 -21 42 0 55 -14 57 -62 3 -76 5 -88 15 -88 6 0 10
28 10 63 0 72 10 87 56 87 18 0 36 5 39 10 4 6 -9 10 -32 10 -53 0 -63 13 -63
87 0 64 -19 91 -21 31z"/>
<path d="M2140 2793 c0 -23 2 -23 119 -23 104 0 119 -2 117 -16 -2 -14 -20
-16 -138 -15 l-136 2 -4 -61 c-3 -60 -3 -60 25 -60 25 0 27 3 27 39 l0 40 110
3 110 3 0 -67 c0 -68 0 -68 28 -68 l28 0 -4 65 -4 65 116 0 116 0 0 -40 c0
-36 3 -40 25 -40 24 0 25 3 25 60 l0 61 -137 -2 c-120 -1 -138 1 -141 15 -3
14 12 16 117 16 119 0 121 0 121 23 l0 22 -260 0 -260 0 0 -22z"/>
<path d="M417 2656 c-3 -8 -3 -23 0 -34 3 -15 -2 -21 -24 -27 l-28 -8 25 -6
c18 -5 25 -14 26 -32 2 -43 4 -49 14 -49 6 0 10 16 10 35 0 28 5 38 23 45 l22
9 -22 7 c-18 5 -23 14 -23 40 0 34 -13 46 -23 20z"/>
<path d="M2180 2655 c0 -12 16 -15 80 -15 64 0 80 3 80 15 0 12 -16 15 -80 15
-64 0 -80 -3 -80 -15z"/>
<path d="M2460 2655 c0 -12 16 -15 80 -15 64 0 80 3 80 15 0 12 -16 15 -80 15
-64 0 -80 -3 -80 -15z"/>
<path d="M880 2626 c0 -19 -5 -26 -19 -26 -29 0 -35 -18 -9 -22 17 -2 24 -11
26 -30 2 -16 8 -28 13 -28 5 0 9 6 8 13 -4 34 2 47 25 47 20 0 23 5 22 33 -1
29 -4 32 -33 35 -30 3 -33 1 -33 -22z m58 -3 c6 -19 -28 -29 -39 -12 -5 8 -9
18 -9 22 0 13 43 3 48 -10z"/>
<path d="M2180 2595 c0 -12 16 -15 80 -15 64 0 80 3 80 15 0 12 -16 15 -80 15
-64 0 -80 -3 -80 -15z"/>
<path d="M2460 2595 c0 -12 16 -15 80 -15 64 0 80 3 80 15 0 12 -16 15 -80 15
-64 0 -80 -3 -80 -15z"/>
<path d="M2440 2525 c-24 -25 -50 -45 -57 -45 -19 0 -16 -13 6 -27 15 -10 22
-9 31 2 7 8 18 15 24 15 11 -1 56 -34 56 -43 0 -2 -27 -12 -60 -21 -44 -12
-58 -21 -53 -31 7 -20 11 -19 88 9 65 23 66 24 113 6 81 -30 115 -33 130 -10
11 17 10 20 -8 21 -11 1 -23 2 -27 3 -5 1 -27 6 -50 10 -24 4 -43 10 -43 13 0
3 23 25 50 50 28 25 48 49 44 54 -3 5 -43 9 -89 9 -71 0 -83 2 -79 15 13 32
-33 14 -76 -30z m173 -30 c-2 -6 -19 -19 -37 -29 -28 -15 -38 -16 -57 -6 -34
18 -49 31 -45 39 7 11 144 7 139 -4z"/>
<path d="M1352 2548 c-14 -14 -15 -143 -2 -173 6 -14 9 -5 9 36 1 30 7 64 15
74 13 18 15 18 52 -5 21 -13 44 -31 51 -40 6 -8 15 -11 20 -7 4 5 -16 31 -45
58 -67 61 -85 72 -100 57z"/>
<path d="M1853 2537 c-31 -18 -93 -76 -93 -88 0 -5 20 4 44 21 59 40 76 39 76
-2 0 -49 12 -108 21 -108 9 0 10 18 2 118 -5 75 -10 81 -50 59z"/>
<path d="M2110 2530 c0 -19 7 -20 96 -20 l96 0 -30 -25 c-35 -29 -45 -31 -62
-10 -14 17 -46 20 -55 5 -3 -5 10 -17 29 -27 20 -9 36 -20 36 -25 0 -4 -31 -5
-70 -2 -69 7 -70 7 -70 -17 0 -23 3 -24 56 -21 53 4 55 3 45 -16 -11 -21 -68
-74 -98 -91 -17 -9 -17 -11 -1 -27 15 -15 19 -14 57 16 23 19 41 36 41 39 0 3
9 17 20 31 l20 25 0 -68 0 -69 -31 4 c-17 2 -31 0 -30 -4 1 -5 1 -15 1 -23 0
-11 11 -14 41 -13 63 2 72 17 67 115 l-4 83 34 0 34 0 -20 -34 c-11 -19 -18
-37 -15 -40 10 -10 43 -7 43 4 0 6 9 29 20 52 11 22 17 45 13 51 -3 5 -31 7
-67 3 l-61 -6 35 27 c81 65 96 82 80 93 -8 5 -68 10 -132 10 -111 0 -118 -1
-118 -20z"/>
<path d="M1621 2338 c1 -60 2 -61 10 -23 11 55 11 85 -1 85 -6 0 -10 -27 -9
-62z"/>
<path d="M1586 2345 c3 -22 10 -44 15 -49 14 -15 10 25 -6 59 l-15 30 6 -40z"/>
<path d="M2500 2359 c0 -19 -5 -21 -55 -17 -45 2 -55 0 -59 -14 -4 -16 4 -18
52 -18 l57 -1 -37 -34 c-24 -22 -52 -37 -77 -41 -37 -6 -40 -8 -29 -28 6 -11
12 -22 13 -24 1 -2 27 8 57 21 49 22 108 75 108 98 0 5 23 9 50 9 44 0 50 -3
50 -21 0 -42 -19 -61 -58 -58 -38 3 -42 0 -42 -25 0 -11 13 -15 51 -14 59 0
83 20 93 76 13 78 14 77 -65 76 -64 -1 -70 1 -66 18 4 14 -1 18 -19 18 -18 0
-24 -5 -24 -21z"/>
<path d="M1537 2338 c11 -13 26 -34 33 -48 8 -15 15 -20 18 -12 6 18 -37 82
-56 82 -13 0 -12 -4 5 -22z"/>
<path d="M1645 2319 c-9 -39 1 -50 15 -15 12 34 13 46 1 46 -5 0 -12 -14 -16
-31z"/>
<path d="M1698 2333 c-9 -10 -20 -28 -26 -39 -10 -18 -8 -23 6 -26 21 -6 79
36 64 46 -6 3 -13 2 -17 -4 -3 -5 -16 -15 -28 -21 -19 -10 -18 -7 6 18 15 16
27 32 27 36 0 13 -17 7 -32 -10z"/>
<path d="M1454 2245 l-25 -25 21 -30 c11 -16 30 -32 41 -35 20 -7 89 2 89 10
0 24 -36 85 -56 94 -35 16 -42 14 -70 -14z"/>
<path d="M1762 2264 c-13 -6 -52 -75 -52 -93 0 -16 69 -25 95 -13 13 6 31 25
40 43 14 26 15 34 3 45 -15 15 -67 26 -86 18z"/>
<path d="M1404 2148 c-5 -8 0 -9 15 -5 19 5 20 3 9 -11 -11 -13 -11 -15 4 -9
12 4 15 2 11 -9 -7 -18 -2 -18 33 1 27 14 28 15 6 15 -13 0 -21 4 -18 9 3 5
-4 11 -17 15 -31 8 -35 8 -43 -6z"/>
<path d="M1607 2126 c-3 -8 4 -21 17 -29 20 -13 25 -13 46 3 13 9 20 22 16 29
-10 16 -73 14 -79 -3z"/>
<path d="M1629 1984 c-9 -11 -9 -18 -1 -26 14 -14 42 -3 42 16 0 20 -27 27
-41 10z"/>
<path d="M1756 1973 c-9 -21 14 -45 33 -34 8 5 11 16 6 30 -8 25 -30 28 -39 4z"/>
<path d="M1487 1959 c-7 -26 -1 -39 18 -39 24 0 28 21 8 42 -20 20 -20 20 -26
-3z"/>
<path d="M270 1927 c0 -8 -5 -17 -12 -19 -7 -3 -5 -13 7 -32 15 -23 20 -25 27
-12 5 8 15 13 23 10 11 -5 15 2 15 25 0 20 -5 31 -14 31 -8 0 -21 3 -30 6 -10
4 -16 1 -16 -9z"/>
<path d="M380 1917 c0 -8 3 -17 8 -21 4 -4 7 -11 8 -14 4 -56 38 -109 49 -80
9 22 -34 128 -51 128 -8 0 -14 -6 -14 -13z"/>
<path d="M610 1910 c0 -11 7 -20 15 -20 8 0 15 9 15 20 0 11 -7 20 -15 20 -8
0 -15 -9 -15 -20z"/>
<path d="M1620 1922 c0 -4 12 -9 28 -10 36 -3 62 -36 62 -82 0 -61 -53 -92
-114 -66 -36 15 -48 8 -23 -13 47 -38 123 -16 152 44 19 41 10 78 -26 111 -19
17 -79 30 -79 16z"/>
<path d="M1576 1874 c-9 -24 12 -47 29 -31 15 14 15 28 0 39 -15 12 -22 10
-29 -8z"/>
<path d="M1660 1860 c0 -26 -34 -60 -62 -60 -12 0 -30 7 -40 17 -17 15 -18 15
-18 -12 0 -21 4 -26 16 -21 9 3 31 6 49 6 22 0 41 8 55 22 21 23 28 68 10 68
-5 0 -10 -9 -10 -20z"/>
<path d="M1803 1843 c-17 -6 -16 -28 1 -42 17 -14 39 9 30 33 -6 17 -10 18
-31 9z"/>
<path d="M290 1817 c0 -2 27 -31 60 -65 42 -43 58 -66 53 -76 -13 -22 -69 -82
-94 -100 -13 -8 -20 -18 -16 -22 7 -7 67 15 67 25 0 9 88 43 98 37 10 -6 46
-77 62 -120 19 -51 28 -14 17 67 -9 65 -8 80 3 87 19 12 6 24 -16 16 -12 -5
-15 -16 -12 -46 4 -48 -1 -50 -24 -10 -19 34 -36 37 -80 14 l-32 -17 27 32
c34 41 34 50 -4 89 -17 18 -27 32 -22 32 5 0 19 -11 31 -25 22 -25 52 -34 52
-15 0 6 7 10 15 10 8 0 16 3 16 8 1 4 3 16 4 27 2 11 6 28 10 38 12 29 -1 19
-29 -23 l-26 -40 -43 21 c-23 12 -53 30 -66 40 -20 16 -51 26 -51 16z"/>
<path d="M2055 1800 c-3 -5 -2 -16 2 -24 6 -12 11 -12 25 -2 15 11 15 13 -2
24 -12 7 -21 8 -25 2z"/>
<path d="M1465 1769 c-8 -25 13 -43 32 -27 9 7 10 15 2 29 -13 25 -26 24 -34
-2z"/>
<path d="M1384 1707 c-4 -12 62 -197 86 -239 6 -10 10 -24 10 -32 0 -15 24
-39 32 -30 6 6 -43 140 -72 198 -11 21 -23 56 -26 77 -7 39 -20 51 -30 26z"/>
<path d="M1857 1703 c-4 -3 -7 -16 -7 -29 0 -12 -14 -52 -30 -89 -17 -37 -42
-101 -56 -142 -24 -69 -25 -77 -10 -91 8 -9 19 -13 23 -9 3 4 2 12 -4 18 -7 7
-8 18 -3 28 5 9 19 45 30 81 12 36 32 88 44 115 36 79 44 149 13 118z"/>
<path d="M214 1689 c-7 -13 32 -29 70 -29 45 0 66 9 66 27 0 11 -14 14 -65 12
-36 -1 -68 -6 -71 -10z"/>
<path d="M1608 1634 c-8 -12 7 -208 17 -224 17 -27 29 15 33 120 3 81 1 110
-7 110 -7 0 -12 -10 -11 -22 4 -46 0 -191 -5 -186 -3 2 -5 39 -6 82 -1 82 -11
137 -21 120z"/>
<path d="M720 1605 c0 -9 -7 -18 -15 -21 -8 -4 -15 -10 -15 -15 0 -5 7 -9 15
-9 8 0 15 -9 15 -20 0 -11 5 -20 10 -20 6 0 10 5 10 11 0 6 8 9 19 6 15 -4 18
1 18 33 0 27 -4 37 -12 33 -7 -2 -16 0 -20 6 -9 16 -25 13 -25 -4z"/>
<path d="M2131 1584 c7 -9 5 -14 -10 -19 -12 -3 -21 -11 -21 -18 0 -8 3 -8 11
0 13 13 51 5 43 -9 -3 -5 -12 -4 -20 3 -8 7 -14 7 -14 1 0 -18 31 -22 46 -7
14 13 14 16 0 21 -22 8 -20 25 2 17 14 -5 15 -3 5 7 -17 18 -57 22 -42 4z"/>
<path d="M414 1543 c-3 -10 -10 -28 -15 -41 -20 -49 -2 -86 20 -43 17 31 25
101 12 101 -6 0 -14 -8 -17 -17z"/>
<path d="M2057 1514 c-4 -4 2 -19 13 -34 11 -16 20 -33 20 -39 0 -6 5 -11 10
-11 16 0 12 20 -11 56 -22 37 -23 37 -32 28z"/>
<path d="M250 1484 c-11 -12 -11 -18 1 -29 17 -17 34 -8 43 23 6 18 3 22 -12
22 -11 0 -25 -7 -32 -16z"/>
<path d="M1952 1464 c-28 -19 -28 -32 1 -44 12 -5 16 -9 10 -9 -7 -1 -13 -6
-13 -11 0 -7 7 -7 21 0 16 9 18 14 8 26 -7 8 -18 13 -26 10 -20 -8 -16 4 10
25 27 22 20 25 -11 3z"/>
<path d="M1998 1440 c2 -22 9 -40 14 -40 6 0 8 10 4 23 -3 12 -6 30 -6 40 0 9
-3 17 -8 17 -4 0 -6 -18 -4 -40z"/>
<path d="M2202 1383 c2 -10 10 -18 18 -18 8 0 16 8 18 18 2 12 -3 17 -18 17
-15 0 -20 -5 -18 -17z"/>
<path d="M2068 1319 c-24 -14 -23 -46 3 -59 37 -20 67 28 37 58 -14 14 -18 14
-40 1z m32 -30 c0 -24 -23 -21 -28 4 -2 10 3 17 12 17 10 0 16 -9 16 -21z"/>
<path d="M1902 1193 c4 -22 43 -25 43 -3 0 8 -11 16 -23 18 -19 3 -23 0 -20
-15z"/>
<path d="M1556 707 c-28 -37 -33 -63 -13 -70 37 -12 100 60 77 88 -19 23 -37
18 -64 -18z"/>
<path d="M2216 707 c-28 -37 -33 -63 -13 -70 37 -12 100 60 77 88 -19 23 -37
18 -64 -18z"/>
</g>
</svg>
